<?xml version="1.0" encoding="UTF-8"?>
<svg id="Layer_1" data-name="Layer 1" xmlns="http://www.w3.org/2000/svg" xmlns:xlink="http://www.w3.org/1999/xlink" viewBox="0 0 773.66 655.65">
  <defs>
    <style>
      .cls-1 {
        fill: #e67125;
      }

      .cls-1, .cls-2, .cls-3, .cls-4, .cls-5, .cls-6, .cls-7, .cls-8 {
        stroke-width: 0px;
      }

      .cls-9 {
        fill: #fff;
        stroke: #fff;
        stroke-width: .25px;
      }

      .cls-2 {
        fill: url(#linear-gradient);
      }

      .cls-10 {
        fill: none;
        stroke: #486bb3;
        stroke-miterlimit: 10;
        stroke-width: 18px;
      }

      .cls-11 {
        fill-rule: evenodd;
        stroke: #010101;
        stroke-linecap: round;
        stroke-linejoin: round;
        stroke-width: 3px;
      }

      .cls-11, .cls-5 {
        fill: #ce432a;
      }

      .cls-3 {
        fill: url(#linear-gradient-2);
      }

      .cls-4 {
        fill: #04acd7;
      }

      .cls-6 {
        fill: #5482a2;
      }

      .cls-7 {
        fill: #486bb3;
      }

      .cls-8 {
        fill: url(#radial-gradient);
        isolation: isolate;
        opacity: .44;
      }
    </style>
    <linearGradient id="linear-gradient" x1="-110.13" y1="1276.96" x2="11.54" y2="1172.28" gradientTransform="translate(72.94 1118.48) scale(.56 -.57)" gradientUnits="userSpaceOnUse">
      <stop offset="0" stop-color="#5c9fd3"/>
      <stop offset="1" stop-color="#316a99"/>
    </linearGradient>
    <linearGradient id="linear-gradient-2" x1="58.58" y1="1108.92" x2="15.13" y2="1170.39" gradientTransform="translate(72.94 1118.48) scale(.56 -.57)" gradientUnits="userSpaceOnUse">
      <stop offset="0" stop-color="#ffd53d"/>
      <stop offset="1" stop-color="#fee875"/>
    </linearGradient>
    <radialGradient id="radial-gradient" cx="1372.05" cy="642.49" fx="1372.05" fy="642.49" r="32.41" gradientTransform="translate(753.94 861.38) rotate(-90) scale(.24 -1.05)" gradientUnits="userSpaceOnUse">
      <stop offset="0" stop-color="#b9b9b9" stop-opacity=".5"/>
      <stop offset="1" stop-color="#7f8080" stop-opacity="0"/>
    </radialGradient>
  </defs>
  <path class="cls-7" d="M731.44,334.93c-12.61,0-23.92,5.59-31.67,14.39l-19.84-14.05c2.11-5.8,3.32-12.03,3.32-18.55s-1.17-12.53-3.2-18.24l19.8-13.9c7.74,8.75,19.02,14.31,31.6,14.31,23.28,0,42.23-18.94,42.23-42.23s-18.94-42.23-42.23-42.23-42.23,18.94-42.23,42.23c0,4.17.63,8.19,1.76,11.99l-19.81,13.91c-8.28-10.27-20.19-17.44-33.77-19.63v-23.88c19.13-4.02,33.54-21.01,33.54-41.32,0-23.29-18.94-42.23-42.23-42.23s-42.23,18.94-42.23,42.23c0,20.04,14.04,36.82,32.78,41.12v24.19c-25.58,4.49-45.1,26.82-45.1,53.67s19.71,49.39,45.48,53.73v25.54c-18.94,4.16-33.16,21.05-33.16,41.22,0,23.29,18.94,42.23,42.23,42.23s42.23-18.94,42.23-42.23c0-20.17-14.23-37.06-33.16-41.22v-25.54c13.04-2.2,24.84-9.06,33.2-19.31l19.98,14.14c-1.11,3.77-1.73,7.75-1.73,11.88,0,23.29,18.94,42.23,42.23,42.23s42.23-18.94,42.23-42.23-18.94-42.23-42.23-42.23ZM731.44,236.2c11.29,0,20.47,9.19,20.47,20.47s-9.18,20.47-20.47,20.47-20.47-9.19-20.47-20.47,9.18-20.47,20.47-20.47ZM608.23,197.75c0-11.29,9.18-20.47,20.47-20.47s20.47,9.19,20.47,20.47-9.18,20.47-20.47,20.47-20.47-9.19-20.47-20.47ZM649.17,437.22c0,11.29-9.18,20.47-20.47,20.47s-20.47-9.19-20.47-20.47,9.18-20.47,20.47-20.47,20.47,9.19,20.47,20.47ZM628.7,345.28c-15.75,0-28.56-12.81-28.56-28.55s12.81-28.56,28.56-28.56,28.56,12.81,28.56,28.56-12.81,28.55-28.56,28.55ZM731.44,397.64c-11.29,0-20.47-9.19-20.47-20.47s9.18-20.47,20.47-20.47,20.47,9.19,20.47,20.47-9.18,20.47-20.47,20.47Z"/>
  <path class="cls-10" d="M237.51,35.91c39.28-17.3,82.72-26.91,128.39-26.91,106.23,0,200.32,51.95,258.26,131.83"/>
  <path class="cls-10" d="M84.79,177.27c3.99-7.43,8.26-14.69,12.81-21.75"/>
  <path class="cls-10" d="M50.37,373.83c-2.17-15.02-3.29-30.38-3.29-46"/>
  <path class="cls-10" d="M148.37,560.91c-8.31-7.76-16.2-15.95-23.64-24.54"/>
  <path class="cls-10" d="M639.87,490.99c-55.64,93.22-157.51,155.66-273.97,155.66-38.28,0-74.99-6.75-109-19.12"/>
  <g id="layer1">
    <g id="g3052">
      <path id="path3055" class="cls-7" d="M358.31,98.69c-3.84.19-7.6,1.15-11.06,2.8l-150.95,72.13c-7.91,3.78-13.66,10.93-15.62,19.42l-37.24,162.01c-1.74,7.54-.32,15.46,3.92,21.95.51.79,1.06,1.55,1.64,2.28l104.48,129.91c5.48,6.81,13.78,10.77,22.57,10.77l167.55-.04c8.78,0,17.09-3.95,22.57-10.75l104.44-129.93c5.48-6.81,7.54-15.73,5.58-24.23l-37.3-162.01c-1.96-8.49-7.7-15.64-15.62-19.42l-150.97-72.09c-4.36-2.08-9.17-3.04-14-2.8Z"/>
      <path id="path3059" class="cls-9" d="M359.81,153.82c-4.99,0-9.04,4.49-9.03,10.04,0,.09.02.17.02.25,0,.75-.04,1.66-.02,2.32.12,3.2.82,5.64,1.24,8.59.76,6.31,1.4,11.53,1,16.39-.38,1.83-1.73,3.51-2.93,4.67l-.21,3.82c-5.42.45-10.88,1.27-16.33,2.51-23.46,5.33-43.66,17.41-59.04,33.73-1-.68-2.74-1.93-3.26-2.32-1.61.22-3.24.72-5.37-.52-4.04-2.72-7.73-6.48-12.18-11-2.04-2.16-3.52-4.23-5.95-6.31-.55-.47-1.39-1.11-2.01-1.6-1.9-1.51-4.13-2.3-6.29-2.37-2.78-.1-5.45.99-7.2,3.19-3.11,3.9-2.11,9.86,2.22,13.32.04.04.09.06.14.1.6.48,1.33,1.1,1.87,1.51,2.57,1.9,4.93,2.87,7.49,4.38,5.4,3.34,9.88,6.1,13.44,9.44,1.39,1.48,1.63,4.09,1.81,5.21l2.9,2.59c-15.5,23.33-22.68,52.15-18.44,81.51l-3.78,1.1c-1,1.29-2.41,3.31-3.88,3.92-4.65,1.46-9.88,2-16.2,2.66-2.97.25-5.52.1-8.67.69-.69.13-1.66.38-2.41.56-.03,0-.05.01-.08.02-.04,0-.1.03-.14.04-5.33,1.29-8.75,6.18-7.64,11,1.1,4.82,6.3,7.76,11.66,6.6.04,0,.09-.01.14-.02.06-.01.11-.04.17-.06.75-.16,1.68-.35,2.34-.52,3.09-.83,5.33-2.04,8.11-3.11,5.98-2.14,10.93-3.94,15.75-4.63,2.01-.16,4.14,1.24,5.19,1.83l3.94-.68c9.06,28.1,28.06,50.81,52.11,65.06l-1.64,3.94c.59,1.53,1.24,3.6.8,5.11-1.75,4.55-4.76,9.35-8.18,14.7-1.66,2.47-3.35,4.39-4.85,7.22-.36.68-.81,1.72-1.16,2.43-2.32,4.97-.62,10.69,3.84,12.84,4.49,2.16,10.06-.12,12.47-5.1,0,0,.02-.01.02-.02,0,0,0-.01,0-.02.34-.71.83-1.63,1.12-2.3,1.28-2.93,1.71-5.45,2.61-8.28,2.39-6,3.7-12.31,6.99-16.23.9-1.08,2.37-1.49,3.89-1.9l2.05-3.71c20.97,8.05,44.43,10.21,67.88,4.88,5.35-1.21,10.51-2.79,15.5-4.67.58,1.02,1.64,2.98,1.93,3.47,1.55.5,3.24.76,4.61,2.8,2.46,4.21,4.15,9.18,6.2,15.19.9,2.84,1.35,5.35,2.63,8.28.29.67.78,1.61,1.12,2.32,2.41,4.99,8,7.28,12.49,5.12,4.46-2.15,6.17-7.87,3.84-12.84-.35-.72-.82-1.76-1.18-2.43-1.49-2.83-3.19-4.73-4.85-7.2-3.42-5.35-6.26-9.8-8.01-14.34-.73-2.35.12-3.8.69-5.33-.34-.39-1.07-2.61-1.51-3.65,24.99-14.76,43.43-38.32,52.09-65.52,1.17.18,3.2.54,3.86.68,1.36-.9,2.61-2.07,5.06-1.87,4.82.7,9.78,2.49,15.75,4.63,2.78,1.06,5.02,2.3,8.11,3.13.65.17,1.59.34,2.34.5.06.01.11.04.17.06.04,0,.1.01.14.02,5.36,1.15,10.56-1.78,11.66-6.6,1.1-4.82-2.32-9.72-7.64-11-.77-.18-1.87-.48-2.63-.62-3.14-.6-5.7-.45-8.67-.69-6.32-.66-11.55-1.2-16.2-2.66-1.9-.74-3.24-2.99-3.9-3.92l-3.65-1.06c1.89-13.69,1.38-27.93-1.89-42.18-3.3-14.38-9.14-27.54-16.93-39.13.94-.85,2.7-2.42,3.2-2.88.15-1.62.02-3.32,1.7-5.12,3.55-3.34,8.03-6.1,13.44-9.44,2.56-1.51,4.94-2.48,7.51-4.38.58-.43,1.38-1.11,1.99-1.6,4.33-3.46,5.33-9.42,2.22-13.32-3.11-3.9-9.14-4.27-13.48-.81-.62.49-1.45,1.13-2.01,1.6-2.43,2.09-3.92,4.15-5.97,6.31-4.46,4.53-8.14,8.3-12.18,11.02-1.75,1.02-4.32.67-5.48.6l-3.44,2.45c-19.6-20.55-46.27-33.68-75-36.24-.08-1.2-.19-3.38-.21-4.03-1.18-1.13-2.6-2.09-2.95-4.52-.39-4.86.26-10.08,1.02-16.39.42-2.95,1.12-5.39,1.24-8.59.03-.73-.02-1.78-.02-2.57,0-5.54-4.05-10.04-9.03-10.04h0ZM348.5,223.9l-2.68,47.4-.19.1c-.18,4.24-3.67,7.63-7.95,7.63-1.75,0-3.37-.56-4.69-1.53l-.08.04-38.86-27.55c11.94-11.74,27.22-20.42,44.83-24.42,3.22-.73,6.43-1.27,9.63-1.66ZM371.14,223.9c20.56,2.53,39.57,11.84,54.13,26.1l-38.61,27.38-.14-.06c-3.43,2.5-8.26,1.88-10.93-1.47-1.09-1.37-1.67-2.99-1.74-4.61l-.04-.02-2.68-47.32ZM279.94,267.69l35.48,31.74-.04.19c3.2,2.78,3.68,7.62,1,10.97-1.09,1.37-2.56,2.29-4.13,2.72l-.04.15-45.48,13.13c-2.31-21.17,2.67-41.75,13.2-58.9ZM439.43,267.7c5.27,8.55,9.26,18.09,11.64,28.44,2.35,10.22,2.94,20.43,1.97,30.29l-45.72-13.17-.04-.19c-4.09-1.12-6.61-5.28-5.66-9.46.39-1.71,1.3-3.16,2.53-4.23l-.02-.1,35.29-31.58h0ZM352.53,301.88h14.54l9.03,11.29-3.24,14.09-13.05,6.27-13.09-6.29-3.24-14.09,9.05-11.27ZM399.13,340.53c.62-.03,1.23.02,1.83.14l.08-.1,47.05,7.95c-6.89,19.34-20.06,36.1-37.67,47.32l-18.26-44.11.06-.08c-1.68-3.9,0-8.47,3.86-10.33.99-.48,2.02-.74,3.05-.79h0ZM320.12,340.72c3.59.05,6.81,2.54,7.64,6.2.39,1.71.2,3.41-.44,4.9l.14.17-18.07,43.67c-16.89-10.84-30.35-27.07-37.55-46.99l46.64-7.92.08.1c.52-.1,1.05-.14,1.56-.14h0ZM359.52,359.85c1.25-.05,2.52.21,3.73.79,1.58.76,2.8,1.96,3.57,3.4h.17l22.99,41.55c-2.98,1-6.05,1.86-9.19,2.57-17.58,3.99-35.11,2.78-50.99-2.63l22.93-41.47h.04c1.38-2.57,3.99-4.11,6.74-4.21Z"/>
    </g>
  </g>
  <g>
    <path class="cls-4" d="M26.78,73.06c-.46,0-.58-.23-.35-.58l2.43-3.12c.23-.35.81-.58,1.27-.58h41.26c.46,0,.58.35.35.69l-1.96,3c-.23.35-.81.69-1.16.69l-41.83-.12Z"/>
    <path class="cls-4" d="M9.33,83.69c-.46,0-.58-.23-.35-.58l2.43-3.12c.23-.35.81-.58,1.27-.58h52.7c.46,0,.69.35.58.69l-.92,2.77c-.12.46-.58.69-1.04.69l-54.66.12Z"/>
    <path class="cls-4" d="M37.29,94.32c-.46,0-.58-.35-.35-.69l1.62-2.89c.23-.35.69-.69,1.16-.69h23.11c.46,0,.69.35.69.81l-.23,2.77c0,.46-.46.81-.81.81l-25.19-.12Z"/>
    <g id="CXHf1q">
      <g>
        <path class="cls-4" d="M157.25,70.98c-7.28,1.85-12.25,3.24-19.41,5.08-1.73.46-1.85.58-3.35-1.16-1.73-1.96-3-3.24-5.43-4.39-7.28-3.58-14.33-2.54-20.92,1.73-7.86,5.08-11.9,12.6-11.79,21.96.12,9.25,6.47,16.87,15.6,18.14,7.86,1.04,14.45-1.73,19.65-7.63,1.04-1.27,1.96-2.66,3.12-4.28h-22.3c-2.43,0-3-1.5-2.2-3.47,1.5-3.58,4.28-9.59,5.89-12.6.35-.69,1.16-1.85,2.89-1.85h42.07c-.23,3.12-.23,6.24-.69,9.36-1.27,8.32-4.39,15.95-9.48,22.65-8.32,10.98-19.18,17.8-32.94,19.65-11.33,1.5-21.84-.69-31.09-7.63-8.55-6.47-13.41-15.02-14.68-25.66-1.5-12.6,2.2-23.92,9.82-33.86,8.21-10.75,19.07-17.57,32.36-19.99,10.86-1.96,21.26-.69,30.62,5.66,6.12,4.04,10.52,9.59,13.41,16.29.69,1.04.23,1.62-1.16,1.96Z"/>
        <path class="cls-4" d="M195.5,134.89c-10.52-.23-20.11-3.24-28.2-10.17-6.82-5.89-11.09-13.41-12.48-22.3-2.08-13.06,1.5-24.62,9.36-34.9,8.44-11.09,18.61-16.87,32.36-19.3,11.79-2.08,22.88-.92,32.94,5.89,9.13,6.24,14.79,14.68,16.29,25.77,1.96,15.6-2.54,28.31-13.29,39.18-7.63,7.74-16.99,12.6-27.74,14.79-3.12.58-6.24.69-9.25,1.04ZM223.01,88.2c-.12-1.5-.12-2.66-.35-3.81-2.08-11.44-12.6-17.91-23.58-15.37-10.75,2.43-17.68,9.25-20.22,20.11-2.08,9.01,2.31,18.14,10.63,21.84,6.36,2.77,12.71,2.43,18.84-.69,9.13-4.74,14.1-12.13,14.68-22.07Z"/>
      </g>
    </g>
  </g>
  <g>
    <path class="cls-5" d="M71.97,185.13c-36.19,0-65.64,29.47-65.64,65.64s29.47,65.64,65.64,65.64,65.64-29.47,65.64-65.64-29.47-65.64-65.64-65.64ZM71.87,190.96c2.33.06,4.19,1.98,4.19,4.32,0,2.39-1.93,4.32-4.32,4.32s-4.32-1.93-4.32-4.32c0-2.39,1.93-4.32,4.32-4.32.04,0,.08,0,.13,0ZM81.76,198.07c15.34,2.87,28.65,12.35,36.38,25.91l-5.1,11.5c-.87,1.99.03,4.32,2,5.21l9.8,4.35c.3,3.06.34,6.15.11,9.22h-5.46c-.54,0-.76.36-.76.89v2.5c0,5.89-3.32,7.18-6.23,7.5-2.78.32-5.85-1.17-6.23-2.86-1.64-9.21-4.36-11.16-8.66-14.57,5.35-3.39,10.9-8.4,10.9-15.09,0-7.23-4.96-11.79-8.33-14.02-4.75-3.12-10-3.75-11.41-3.75h-56.38c7.8-8.71,18.24-14.6,29.73-16.77l6.65,6.97c1.5,1.57,3.99,1.64,5.55.12l7.44-7.1ZM20.38,230.03c2.34.07,4.19,1.98,4.19,4.32,0,2.39-1.94,4.32-4.32,4.32-2.38,0-4.32-1.93-4.32-4.32,0-2.39,1.93-4.32,4.32-4.32.04,0,.08,0,.13,0ZM123.35,230.23c2.34.07,4.19,1.98,4.19,4.32,0,2.39-1.93,4.32-4.32,4.32s-4.32-1.93-4.32-4.32c0-2.39,1.93-4.32,4.32-4.32.04,0,.08,0,.13,0ZM28.52,230.92h7.53v33.94h-15.19c-1.88-6.59-2.46-13.48-1.72-20.29l9.3-4.14c1.99-.89,2.89-3.21,2-5.19l-1.92-4.32ZM59.93,231.28h17.93c.93,0,6.54,1.07,6.54,5.28,0,3.49-4.3,4.74-7.85,4.74h-16.64v-10.01ZM59.93,255.67h13.73c1.25,0,6.71.36,8.44,7.33.54,2.14,1.75,9.11,2.57,11.34.82,2.5,4.14,7.5,7.68,7.5h22.41c-1.5,2.01-3.14,3.91-4.92,5.69l-9.12-1.96c-2.12-.46-4.22.9-4.68,3.03l-2.17,10.11c-14.1,6.39-30.27,6.31-44.31-.21l-2.17-10.11c-.46-2.12-2.54-3.49-4.67-3.03l-8.93,1.92c-1.66-1.71-3.2-3.53-4.61-5.44h43.42c.49,0,.82-.08.82-.54v-15.36c0-.44-.33-.54-.82-.54h-12.71v-9.73ZM39.89,290.84c2.34.07,4.19,1.98,4.19,4.32,0,2.39-1.93,4.32-4.32,4.32s-4.32-1.93-4.32-4.32c0-2.39,1.93-4.32,4.32-4.32.04,0,.08,0,.13,0ZM103.84,291.03c2.34.07,4.19,1.98,4.19,4.32,0,2.39-1.93,4.32-4.32,4.32s-4.32-1.93-4.32-4.32c0-2.39,1.93-4.32,4.32-4.32.04,0,.08,0,.13,0Z"/>
    <path class="cls-11" d="M133.94,250.77c0,34.23-27.75,61.97-61.97,61.97s-61.97-27.75-61.97-61.97h0c0-34.23,27.75-61.97,61.97-61.97s61.97,27.75,61.97,61.97h0ZM132.78,244.78l9.66,5.98-9.66,5.98,8.3,7.76-10.64,3.99,6.64,9.23-11.23,1.83,4.72,10.36-11.37-.4,2.61,11.08-11.08-2.61.4,11.37-10.36-4.72-1.83,11.23-9.23-6.64-3.99,10.64-7.76-8.3-5.98,9.66-5.98-9.66-7.76,8.3-3.99-10.64-9.23,6.64-1.83-11.23-10.36,4.72.4-11.37-11.08,2.61,2.61-11.08-11.37.4,4.72-10.36-11.23-1.83,6.64-9.23-10.64-3.99,8.3-7.76-9.66-5.98,9.66-5.98-8.3-7.76,10.64-3.99-6.64-9.23,11.23-1.83-4.72-10.36,11.37.4-2.61-11.08,11.08,2.61-.4-11.37,10.36,4.72,1.83-11.23,9.23,6.64,3.99-10.64,7.76,8.3,5.98-9.66,5.98,9.66,7.76-8.3,3.99,10.64,9.23-6.64,1.83,11.23,10.36-4.72-.4,11.37,11.08-2.61-2.61,11.08,11.37-.4-4.72,10.36,11.23,1.83-6.64,9.23,10.64,3.99-8.3,7.76Z"/>
  </g>
  <g>
    <path id="path1948" class="cls-2" d="M75.33,389.63c-5.12.02-10,.46-14.3,1.22-12.66,2.24-14.96,6.92-14.96,15.56v11.4h29.93v3.8h-41.16c-8.7,0-16.31,5.23-18.69,15.17-2.75,11.4-2.87,18.51,0,30.41,2.13,8.86,7.21,15.17,15.9,15.17h10.29v-13.67c0-9.88,8.55-18.59,18.69-18.59h29.89c8.32,0,14.96-6.85,14.96-15.21v-28.5c0-8.11-6.84-14.2-14.96-15.56-5.14-.86-10.47-1.24-15.59-1.22ZM59.15,398.8c3.09,0,5.62,2.57,5.62,5.72,0,3.14-2.52,5.69-5.62,5.69-3.1,0-5.62-2.54-5.62-5.69s2.51-5.72,5.62-5.72Z"/>
    <path id="path1950" class="cls-3" d="M109.61,421.61v13.29c0,10.3-8.73,18.97-18.69,18.97h-29.89c-8.19,0-14.96,7.01-14.96,15.21v28.5c0,8.11,7.05,12.88,14.96,15.21,9.47,2.79,18.56,3.29,29.89,0,7.53-2.18,14.96-6.57,14.96-15.21v-11.4h-29.89v-3.8h44.85c8.7,0,11.94-6.07,14.96-15.17,3.12-9.37,2.99-18.39,0-30.41-2.15-8.66-6.25-15.17-14.96-15.17h-11.23ZM92.8,493.78c3.1,0,5.62,2.54,5.62,5.69s-2.51,5.72-5.62,5.72-5.62-2.57-5.62-5.72,2.52-5.69,5.62-5.69Z"/>
    <ellipse id="path1894" class="cls-8" cx="76.33" cy="532.16" rx="40.1" ry="7.78"/>
  </g>
  <g>
    <path class="cls-6" d="M163.64,614.79s-5.81,3.38,4.13,4.52c12.04,1.37,18.2,1.18,31.47-1.33,0,0,3.49,2.19,8.36,4.08-29.75,12.75-67.33-.74-43.96-7.27M160,598.15s-6.51,4.82,3.43,5.85c12.86,1.33,23.02,1.44,40.6-1.95,0,0,2.43,2.46,6.25,3.81-35.97,10.52-76.03.83-50.29-7.71"/>
    <path class="cls-1" d="M190.65,569.93c7.33,8.44-1.93,16.03-1.93,16.03,0,0,18.61-9.61,10.06-21.64-7.98-11.22-14.11-16.8,19.04-36.02,0,0-52.03,12.99-27.18,41.62"/>
    <path class="cls-6" d="M230,627.09s4.3,3.54-4.73,6.28c-17.17,5.2-71.47,6.77-86.56.21-5.42-2.36,4.75-5.63,7.94-6.32,3.34-.72,5.24-.59,5.24-.59-6.03-4.25-38.98,8.34-16.74,11.95,60.66,9.84,110.57-4.43,94.84-11.53M166.43,580.91s-27.62,6.56-9.78,8.94c7.53,1.01,22.55.78,36.53-.39,11.43-.96,22.91-3.01,22.91-3.01,0,0-4.03,1.73-6.95,3.72-28.05,7.38-82.23,3.95-66.63-3.6,13.19-6.38,23.92-5.65,23.92-5.65M215.98,608.61c28.51-14.82,15.33-29.05,6.13-27.14-2.26.47-3.26.88-3.26.88,0,0,.84-1.31,2.44-1.88,18.2-6.4,32.2,18.87-5.88,28.89,0,0,.44-.39.57-.75"/>
    <path class="cls-1" d="M198.79,497.26s15.79,15.8-14.98,40.08c-24.67,19.48-5.63,30.59-.01,43.29-14.4-12.99-24.97-24.43-17.88-35.08,10.41-15.63,39.24-23.2,32.87-48.29"/>
    <path class="cls-6" d="M169.23,648.75c27.37,1.75,69.39-.97,70.39-13.92,0,0-1.91,4.91-22.62,8.81-23.36,4.4-52.17,3.88-69.26,1.07,0,0,3.5,2.9,21.49,4.05"/>
  </g>
</svg>